<svg width="121" height="32" viewBox="0 0 121 32" fill="none" xmlns="http://www.w3.org/2000/svg">
<path d="M0 21.7807V18.294C0.00444446 17.2629 0.780003 16.4285 1.73445 16.4285H3.21113C4.11668 16.4285 4.85113 15.6229 4.85113 14.6296V8.3262C4.85113 7.29286 5.62669 6.45508 6.58336 6.45508H9.14115C9.99004 6.45508 10.7778 6.94286 11.2167 7.73953L18.7968 21.5063C19.7734 23.2807 18.609 25.5441 16.7212 25.5441H15.4112C14.5667 25.5441 13.7823 25.0607 13.3412 24.2696L9.6856 17.7018C9.2456 16.9107 8.46115 16.4285 7.61559 16.4285H6.49003C5.58447 16.4285 4.85002 17.234 4.85002 18.2274V21.4674L4.84669 22.3229C4.84669 23.7696 3.76113 24.9418 2.42334 24.9418C1.08556 24.9418 0 23.7696 0 22.324" fill="#1956C6"/>
<path d="M35.0256 16.9733H25.9589C26.0122 20.1467 28.0389 21.4533 30.3855 21.4533C32.0655 21.4533 33.0789 21.16 33.9589 20.7867L34.3589 22.4667C33.5322 22.84 32.1189 23.2667 30.0655 23.2667C26.0922 23.2667 23.7188 20.6533 23.7188 16.76C23.7188 12.8666 26.0122 9.79994 29.7722 9.79994C33.9856 9.79994 35.1056 13.5066 35.1056 15.88C35.1056 16.36 35.0522 16.7333 35.0256 16.9733ZM25.9855 15.2933H32.8389C32.8656 13.8 32.2256 11.4799 29.5855 11.4799C27.2122 11.4799 26.1722 13.6666 25.9855 15.2933ZM46.8117 4.06658H49.1583V19.6667C49.1583 20.8133 49.185 22.12 49.265 23H47.1583L47.0517 20.76H46.9983C46.2783 22.2 44.705 23.2933 42.5983 23.2933C39.4783 23.2933 37.0783 20.6533 37.0783 16.7333C37.0516 12.44 39.7183 9.79994 42.865 9.79994C44.8383 9.79994 46.1717 10.7333 46.7583 11.7733H46.8117V4.06658ZM46.8117 17.5866V15.3466C46.8117 15.0533 46.785 14.6533 46.705 14.36C46.3583 12.8666 45.0783 11.6399 43.3183 11.6399C40.8916 11.6399 39.4516 13.7733 39.4516 16.6266C39.4516 19.24 40.7316 21.4 43.265 21.4C44.8383 21.4 46.2783 20.36 46.705 18.6C46.785 18.28 46.8117 17.96 46.8117 17.5866ZM63.8638 10.0933V19.48C63.8638 20.8133 63.8905 21.9867 63.9705 23H61.8905L61.7571 20.8933H61.7038C61.0905 21.9333 59.7305 23.2933 57.4371 23.2933C55.4104 23.2933 52.9838 22.1733 52.9838 17.64V10.0933H55.3304V17.24C55.3304 19.6933 56.0771 21.3467 58.2105 21.3467C59.7838 21.3467 60.8771 20.2533 61.3038 19.2133C61.4371 18.8666 61.5171 18.44 61.5171 18.0133V10.0933H63.8638ZM67.7513 28.28V14.3066C67.7513 12.6533 67.698 11.3199 67.6447 10.0933H69.7513L69.858 12.3066H69.9114C70.8714 10.7333 72.3914 9.79994 74.498 9.79994C77.6181 9.79994 79.9647 12.44 79.9647 16.36C79.9647 21 77.1381 23.2933 74.098 23.2933C72.3914 23.2933 70.898 22.5467 70.1247 21.2667H70.0714V28.28H67.7513ZM70.0714 15.5333V17.7466C70.0714 18.0933 70.1247 18.4133 70.178 18.7066C70.6047 20.3333 72.018 21.4533 73.698 21.4533C76.178 21.4533 77.6181 19.4267 77.6181 16.4666C77.6181 13.88 76.258 11.6666 73.778 11.6666C72.178 11.6666 70.6847 12.8133 70.2314 14.5733C70.1514 14.8666 70.0714 15.2133 70.0714 15.5333ZM82.9337 23V4.06658H85.2804V23H82.9337ZM99.6092 16.9733H90.5425C90.5958 20.1467 92.6225 21.4533 94.9692 21.4533C96.6492 21.4533 97.6625 21.16 98.5425 20.7867L98.9425 22.4667C98.1159 22.84 96.7025 23.2667 94.6492 23.2667C90.6758 23.2667 88.3025 20.6533 88.3025 16.76C88.3025 12.8666 90.5958 9.79994 94.3558 9.79994C98.5692 9.79994 99.6892 13.5066 99.6892 15.88C99.6892 16.36 99.6359 16.7333 99.6092 16.9733ZM90.5692 15.2933H97.4225C97.4492 13.8 96.8092 11.4799 94.1692 11.4799C91.7958 11.4799 90.7558 13.6666 90.5692 15.2933ZM104.942 23H102.595V10.0933H104.942V23ZM103.769 4.99992C104.649 4.99992 105.209 5.63992 105.209 6.46659C105.235 7.26659 104.649 7.9066 103.715 7.9066C102.889 7.9066 102.302 7.26659 102.302 6.46659C102.302 5.63992 102.915 4.99992 103.769 4.99992ZM118.125 23H115.992L115.805 21.3733H115.725C115.005 22.3867 113.619 23.2933 111.779 23.2933C109.165 23.2933 107.832 21.4533 107.832 19.5867C107.832 16.4666 110.605 14.76 115.592 14.7866V14.52C115.592 13.4533 115.299 11.5333 112.659 11.5333C111.459 11.5333 110.205 11.9066 109.299 12.4933L108.765 10.9466C109.832 10.2533 111.379 9.79994 113.005 9.79994C116.952 9.79994 117.912 12.4933 117.912 15.08V19.9067C117.912 21.0267 117.965 22.12 118.125 23ZM115.645 18.6533V16.4133C113.085 16.36 110.179 16.8133 110.179 19.32C110.179 20.84 111.192 21.56 112.392 21.56C114.072 21.56 115.139 20.4933 115.512 19.4C115.592 19.16 115.645 18.8933 115.645 18.6533Z" fill="#1956C6"/>
</svg>
