<?xml version="1.0" encoding="UTF-8"?>
<svg width="18px" height="18px" viewBox="0 0 18 18" version="1.1" xmlns="http://www.w3.org/2000/svg" xmlns:xlink="http://www.w3.org/1999/xlink">
    <g stroke="none" stroke-width="1" fill="none" fill-rule="evenodd">
        <path d="M9,0 C4.02943725,0 0,4.02943725 0,9 C0,13.9705627 4.02943725,18 9,18 C13.9705627,18 18,13.9705627 18,9 C18,4.02943725 13.9705627,0 9,0 Z" fill="#1877F2"/>
        <path d="M12.5,9.5 L10.5,9.5 L10.5,7.5 C10.5,6.94771525 10.9477153,6.5 11.5,6.5 L12.5,6.5 L12.5,4.5 L10.5,4.5 C8.84314575,4.5 7.5,5.84314575 7.5,7.5 L7.5,9.5 L5.5,9.5 L5.5,11.5 L7.5,11.5 L7.5,16.5 L10.5,16.5 L10.5,11.5 L12.5,11.5 L12.5,9.5 Z" fill="#FFFFFF"/>
    </g>
</svg> 